# xmcd
#
# Track frame offsets:
#	150
#	43483
#	118004
#	158798
#	221507
#	275872
#
# Disc length: 4264 seconds
#
# Revision: 0
# Processed by: cddbd v1.5.2PL0 Copyright (c) Steve Scherf et al.
# Submitted via: audiograbber 1.83.01
#
DISCID=5d10a606
DTITLE=Grateful Dead - 79-12-03 Uptown Theatre, Chicago IL
DYEAR=1900
DGENRE=
TTITLE0=Scarlet Begonias
TTITLE1=Fire On The Mountain
TTITLE2=Samson and Delilah
TTITLE3=Terrapin Station
TTITLE4=Playing In The Band
TTITLE5=Drums
EXTD=
EXTT0=
EXTT1=
EXTT2=
EXTT3=
EXTT4=
EXTT5=
PLAYORDER=
